<mxfile host="app.diagrams.net" modified="2023-10-04T02:15:29.582Z" agent="Mozilla/5.0 (Windows NT 10.0; Win64; x64) AppleWebKit/537.36 (KHTML, like Gecko) Chrome/116.0.0.0 Safari/537.36" etag="YvOujOyiEJ1Q43DzhQ6K" version="22.0.2" type="github">
  <diagram name="Page-1" id="e7e014a7-5840-1c2e-5031-d8a46d1fe8dd">
    <mxGraphModel dx="1434" dy="790" grid="1" gridSize="10" guides="1" tooltips="1" connect="1" arrows="1" fold="1" page="1" pageScale="1" pageWidth="1169" pageHeight="826" background="none" math="0" shadow="0">
      <root>
        <mxCell id="0" />
        <mxCell id="1" parent="0" />
        <mxCell id="2" value="Sabre host " style="swimlane;whiteSpace=wrap" parent="1" vertex="1">
          <mxGeometry x="80" y="128" width="310" height="570" as="geometry" />
        </mxCell>
        <mxCell id="7" value="지시어 응답 String" style="" parent="2" vertex="1">
          <mxGeometry x="60" y="93" width="110" height="28" as="geometry" />
        </mxCell>
        <mxCell id="8" value="user action" style="" parent="2" vertex="1">
          <mxGeometry x="60" y="220" width="110" height="50" as="geometry" />
        </mxCell>
        <mxCell id="9" value="" style="endArrow=open;strokeColor=#FF0000;endFill=1;rounded=0" parent="2" source="7" target="8" edge="1">
          <mxGeometry relative="1" as="geometry" />
        </mxCell>
        <mxCell id="10" value="post command" style="" parent="2" vertex="1">
          <mxGeometry x="60" y="325" width="110" height="50" as="geometry" />
        </mxCell>
        <mxCell id="11" value="" style="endArrow=open;strokeColor=#FF0000;endFill=1;rounded=0" parent="2" source="8" target="10" edge="1">
          <mxGeometry relative="1" as="geometry" />
        </mxCell>
        <mxCell id="6lSSJdkd9sKQMiOpRLFT-60" value="EMDPOPUP 전송" style="text;html=1;strokeColor=none;fillColor=none;align=center;verticalAlign=middle;whiteSpace=wrap;rounded=0;fontSize=10;" vertex="1" parent="2">
          <mxGeometry x="180" y="82" width="100" height="30" as="geometry" />
        </mxCell>
        <mxCell id="3" value="Client" style="swimlane;whiteSpace=wrap" parent="1" vertex="1">
          <mxGeometry x="360" y="128" width="364.5" height="570" as="geometry" />
        </mxCell>
        <mxCell id="13" value="시작" style="ellipse;shape=startState;fillColor=#000000;strokeColor=#ff0000;fontColor=#FFFFFF;" parent="3" vertex="1">
          <mxGeometry x="300" y="63" width="52.5" height="42" as="geometry" />
        </mxCell>
        <mxCell id="14" value="" style="edgeStyle=elbowEdgeStyle;elbow=horizontal;verticalAlign=bottom;endArrow=open;endSize=8;strokeColor=#FF0000;endFill=1;rounded=0" parent="3" source="13" target="15" edge="1">
          <mxGeometry x="40" y="20" as="geometry">
            <mxPoint x="55" y="90" as="targetPoint" />
          </mxGeometry>
        </mxCell>
        <mxCell id="6lSSJdkd9sKQMiOpRLFT-57" value="" style="edgeStyle=orthogonalEdgeStyle;rounded=0;orthogonalLoop=1;jettySize=auto;html=1;" edge="1" parent="3" source="15" target="6lSSJdkd9sKQMiOpRLFT-56">
          <mxGeometry relative="1" as="geometry" />
        </mxCell>
        <mxCell id="15" value="전송서비스 호출" style="" parent="3" vertex="1">
          <mxGeometry x="160" y="70" width="105" height="28" as="geometry" />
        </mxCell>
        <mxCell id="18" value="command queue" style="" parent="3" vertex="1">
          <mxGeometry x="20" y="325" width="110" height="50" as="geometry" />
        </mxCell>
        <mxCell id="30" value="dispatch&#xa;command&#xa;worker thread" style="" parent="3" vertex="1">
          <mxGeometry x="140" y="325" width="110" height="50" as="geometry" />
        </mxCell>
        <mxCell id="31" value="critical&#xa;section" style="shape=note;whiteSpace=wrap;size=17" parent="3" vertex="1">
          <mxGeometry x="105" y="490" width="100" height="50" as="geometry" />
        </mxCell>
        <mxCell id="32" value="" style="endArrow=none;strokeColor=#FF0000;endFill=0;rounded=0;dashed=1" parent="3" source="18" target="31" edge="1">
          <mxGeometry relative="1" as="geometry" />
        </mxCell>
        <mxCell id="34" value="" style="whiteSpace=wrap;strokeColor=#FF0000;fillColor=#FF0000" parent="3" vertex="1">
          <mxGeometry x="245" y="395" width="5" height="45" as="geometry" />
        </mxCell>
        <mxCell id="41" value="" style="edgeStyle=elbowEdgeStyle;elbow=horizontal;entryX=0;entryY=0.5;strokeColor=#FF0000;endArrow=open;endFill=1;rounded=0" parent="3" source="30" target="34" edge="1">
          <mxGeometry width="100" height="100" relative="1" as="geometry">
            <mxPoint x="60" y="480" as="sourcePoint" />
            <mxPoint x="160" y="380" as="targetPoint" />
            <Array as="points">
              <mxPoint x="195" y="400" />
            </Array>
          </mxGeometry>
        </mxCell>
        <mxCell id="6lSSJdkd9sKQMiOpRLFT-50" value="EMD창 호출" style="whiteSpace=wrap;html=1;" vertex="1" parent="3">
          <mxGeometry x="15" y="202" width="110" height="30" as="geometry" />
        </mxCell>
        <mxCell id="6lSSJdkd9sKQMiOpRLFT-56" value="탭 버튼&#xa;" style="align=left;verticalAlign=top;" vertex="1" parent="3">
          <mxGeometry x="20" y="70" width="105" height="100" as="geometry" />
        </mxCell>
        <mxCell id="6lSSJdkd9sKQMiOpRLFT-58" value="EMD" style="rounded=0;whiteSpace=wrap;html=1;" vertex="1" parent="3">
          <mxGeometry x="25" y="96" width="92" height="22" as="geometry" />
        </mxCell>
        <mxCell id="4" value="Server" style="swimlane;whiteSpace=wrap" parent="1" vertex="1">
          <mxGeometry x="724.5" y="128" width="355.5" height="570" as="geometry" />
        </mxCell>
        <mxCell id="33" value="process&#xa;command" style="" parent="4" vertex="1">
          <mxGeometry x="90" y="405" width="110" height="50" as="geometry" />
        </mxCell>
        <mxCell id="37" value="" style="edgeStyle=none;strokeColor=#FF0000;endArrow=open;endFill=1;rounded=0" parent="4" target="33" edge="1">
          <mxGeometry width="100" height="100" relative="1" as="geometry">
            <mxPoint x="-30" y="429.5" as="sourcePoint" />
            <mxPoint x="90" y="429.5" as="targetPoint" />
          </mxGeometry>
        </mxCell>
        <mxCell id="38" value="" style="ellipse;shape=endState;fillColor=#000000;strokeColor=#ff0000" parent="4" vertex="1">
          <mxGeometry x="130" y="500" width="30" height="30" as="geometry" />
        </mxCell>
        <mxCell id="39" value="" style="endArrow=open;strokeColor=#FF0000;endFill=1;rounded=0" parent="4" source="33" target="38" edge="1">
          <mxGeometry relative="1" as="geometry" />
        </mxCell>
        <mxCell id="20" value="" style="endArrow=open;strokeColor=#FF0000;endFill=1;rounded=0" parent="1" source="10" target="18" edge="1">
          <mxGeometry relative="1" as="geometry" />
        </mxCell>
        <mxCell id="6lSSJdkd9sKQMiOpRLFT-41" value="설명" style="swimlane;whiteSpace=wrap;fontStyle=4" vertex="1" parent="1">
          <mxGeometry x="1080" y="128" width="330" height="570" as="geometry" />
        </mxCell>
        <mxCell id="6lSSJdkd9sKQMiOpRLFT-43" value="" style="edgeStyle=elbowEdgeStyle;elbow=horizontal;strokeColor=#FF0000;endArrow=open;endFill=1;rounded=0;entryX=0.25;entryY=0.5;entryPerimeter=0" edge="1" parent="6lSSJdkd9sKQMiOpRLFT-41">
          <mxGeometry width="100" height="100" relative="1" as="geometry">
            <mxPoint x="-30" y="410" as="sourcePoint" />
            <mxPoint x="-120" y="120" as="targetPoint" />
            <Array as="points">
              <mxPoint x="-10" y="135" />
            </Array>
          </mxGeometry>
        </mxCell>
        <mxCell id="6lSSJdkd9sKQMiOpRLFT-48" value="1. 시작&amp;nbsp;" style="whiteSpace=wrap;html=1;" vertex="1" parent="6lSSJdkd9sKQMiOpRLFT-41">
          <mxGeometry y="22" width="330" height="548" as="geometry" />
        </mxCell>
        <mxCell id="6lSSJdkd9sKQMiOpRLFT-59" value="" style="edgeStyle=elbowEdgeStyle;elbow=horizontal;verticalAlign=bottom;endArrow=open;endSize=8;strokeColor=#FF0000;endFill=1;rounded=0;exitX=0;exitY=0.5;exitDx=0;exitDy=0;entryX=1;entryY=0.5;entryDx=0;entryDy=0;" edge="1" parent="1" source="6lSSJdkd9sKQMiOpRLFT-58" target="7">
          <mxGeometry x="40" y="20" as="geometry">
            <mxPoint x="635" y="222" as="targetPoint" />
            <mxPoint x="670" y="222" as="sourcePoint" />
          </mxGeometry>
        </mxCell>
      </root>
    </mxGraphModel>
  </diagram>
</mxfile>
